<svg width="681.96252" height="187.5" xmlns="http://www.w3.org/2000/svg">
 <metadata id="metadata8">image/svg+xml</metadata>
 <defs>
  <clipPath id="clipPath18">
   <path id="path20" d="m-80,1652l0,-1500l5455.74,0l0,1500l-5455.74,0z"/>
  </clipPath>
 </defs>
 <g>
  <title>background</title>
  <rect fill="none" id="canvas_background" height="402" width="582" y="-1" x="-1"/>
 </g>
 <g>
  <title>Layer 1</title>
  <g id="g10" transform="matrix(1.25,0,0,-1.25,0,187.5) ">
   <g id="g12" transform="translate(12,-16) scale(0.10000000149011612) ">
    <g id="g14">
     <g id="g16" clip-path="url(#clipPath18)">
      <path fill="#8a4182" fill-rule="nonzero" id="path22" d="m1464,751.434c0.92,-40.352 25.68,-81.602 71.53,-81.602c27.51,0 47.68,12.832 61.44,35.754c12.83,22.93 12.83,56.852 12.83,82.527l0,329.184l-71.52,0l0,104.543l266.83,0l0,-104.543l-70.6,0l0,-344.77c0,-58.691 -3.68,-104.531 -44.93,-152.218c-36.68,-42.18 -96.28,-66.02 -153.14,-66.02c-117.37,0 -207.24,77.941 -202.64,197.145l130.2,0"/>
      <path fill="#8a4182" fill-rule="nonzero" id="path24" d="m2221.4,814.695c0,80.703 -66.94,145.813 -147.63,145.813c-83.44,0 -147.63,-68.781 -147.63,-151.301c0,-79.785 66.94,-145.801 145.8,-145.801c84.35,0 149.46,67.852 149.46,151.289zm-1.83,-181.547c-35.77,-54.097 -93.53,-78.859 -157.72,-78.859c-140.3,0 -251.24,116.449 -251.24,254.918c0,142.129 113.7,260.41 256.74,260.41c63.27,0 118.29,-29.336 152.22,-82.523l0,69.687l175.14,0l0,-104.527l-61.44,0l0,-280.598l61.44,0l0,-104.527l-175.14,0l0,66.019"/>
      <path fill="#8a4182" fill-rule="nonzero" id="path26" d="m2542.33,709.258c3.67,-44.016 33.01,-73.348 78.86,-73.348c33.93,0 66.93,23.824 66.93,60.504c0,48.606 -45.84,56.856 -83.44,66.941c-85.28,22.004 -178.81,48.606 -178.81,155.879c0,93.536 78.86,147.633 165.98,147.633c44,0 83.43,-9.176 110.94,-44.008l0,33.922l82.53,0l0,-132.965l-108.21,0c-1.83,34.856 -28.42,57.774 -63.26,57.774c-30.26,0 -62.35,-17.422 -62.35,-51.348c0,-45.847 44.93,-55.93 80.69,-64.18c88.02,-20.175 182.47,-47.695 182.47,-157.734c0,-99.027 -83.44,-154.039 -175.13,-154.039c-49.53,0 -94.46,15.582 -126.55,53.18l0,-40.34l-85.27,0l0,142.129l114.62,0"/>
      <path fill="#8a4182" fill-rule="nonzero" id="path28" d="m2908.18,952.254l-63.26,0l0,104.527l165.05,0l0,-73.355c31.18,51.347 78.86,85.277 141.21,85.277c67.85,0 124.71,-41.258 152.21,-102.699c26.6,62.351 92.62,102.699 160.47,102.699c53.19,0 105.46,-22 141.21,-62.351c38.52,-44.938 38.52,-93.532 38.52,-149.457l0,-185.239l63.27,0l0,-104.527l-238.42,0l0,104.527l63.28,0l0,157.715c0,32.102 0,60.527 -14.67,88.957c-18.34,26.582 -48.61,40.344 -79.77,40.344c-30.26,0 -63.28,-12.844 -82.53,-36.672c-22.93,-29.355 -22.93,-56.863 -22.93,-92.629l0,-157.715l63.27,0l0,-104.527l-238.41,0l0,104.527l63.28,0l0,150.383c0,29.348 0,66.023 -14.67,91.699c-15.59,29.336 -47.69,44.934 -80.7,44.934c-31.18,0 -57.77,-11.008 -77.94,-35.774c-24.77,-30.253 -26.6,-62.343 -26.6,-99.941l0,-151.301l63.27,0l0,-104.527l-238.4,0l0,104.527l63.26,0l0,280.598"/>
      <path fill="#8a4182" fill-rule="nonzero" id="path30" d="m3918.66,1103.547l-111.87,0l0,118.293l111.87,0l0,-118.293zm0,-431.891l63.27,0l0,-104.527l-239.33,0l0,104.527l64.19,0l0,280.598l-63.27,0l0,104.527l175.14,0l0,-385.125"/>
      <path fill="#8a4182" fill-rule="nonzero" id="path32" d="m4079.12,952.254l-63.27,0l0,104.527l175.14,0l0,-69.687c29.35,54.101 84.36,80.699 144.87,80.699c53.19,0 105.45,-22.016 141.22,-60.527c40.34,-44.934 41.26,-88.032 41.26,-143.957l0,-191.653l63.27,0l0,-104.527l-238.4,0l0,104.527l63.26,0l0,158.637c0,30.262 0,61.434 -19.26,88.035c-20.17,26.582 -53.18,39.414 -86.19,39.414c-33.93,0 -68.77,-13.75 -88.94,-41.25c-21.09,-27.5 -21.09,-69.687 -21.09,-102.707l0,-142.129l63.26,0l0,-104.527l-238.4,0l0,104.527l63.27,0l0,280.598"/>
      <path fill="#8a4182" fill-rule="nonzero" id="path34" d="m5002.48,855.965c-19.24,70.605 -81.6,115.547 -154.04,115.547c-66.04,0 -129.3,-51.348 -143.05,-115.547l297.09,0zm85.27,-144.883c-38.51,-93.523 -129.27,-156.793 -231.05,-156.793c-143.07,0 -257.68,111.871 -257.68,255.836c0,144.883 109.12,261.328 254.91,261.328c67.87,0 135.72,-30.258 183.39,-78.863c48.62,-51.344 68.79,-113.695 68.79,-183.383l-3.67,-39.434l-396.13,0c14.67,-67.863 77.03,-117.363 146.72,-117.363c48.59,0 90.76,18.328 118.28,58.672l116.44,0"/>
      <path fill="#8a4182" fill-rule="nonzero" id="path36" d="m610.895,1002.703l90.75,0l22.543,31.035l0,243.122l-135.829,0l0,-243.141l22.536,-31.016"/>
      <path fill="#8a4182" fill-rule="nonzero" id="path38" d="m552.395,894.258l28.039,86.304l-22.551,31.04l-231.223,75.128l-41.976,-129.183l231.257,-75.137l36.454,11.848"/>
      <path fill="#8a4182" fill-rule="nonzero" id="path40" d="m637.449,805.105l-73.41,53.36l-36.488,-11.875l-142.903,-196.692l109.883,-79.828l142.918,196.703l0,38.332"/>
      <path fill="#8a4182" fill-rule="nonzero" id="path42" d="m748.52,858.465l-73.426,-53.34l0.011,-38.359l142.899,-196.696l109.896,79.828l-142.927,196.711l-36.453,11.856"/>
      <path fill="#8a4182" fill-rule="nonzero" id="path44" d="m732.086,980.586l28.055,-86.32l36.484,-11.836l231.225,75.117l-41.97,129.183l-231.239,-75.14l-22.555,-31.004"/>
      <path fill="#8a4182" fill-rule="nonzero" id="path46" d="m656.301,1487.88c-323.047,0 -585.875,-262.78 -585.875,-585.782c0,-323.118 262.828,-585.977 585.875,-585.977c323.019,0 585.809,262.859 585.809,585.977c0,323.002 -262.79,585.782 -585.809,585.782l0,0zm0,-118.61c257.972,0 467.189,-209.13 467.189,-467.172c0,-258.129 -209.217,-467.348 -467.189,-467.348c-258.074,0 -467.254,209.219 -467.254,467.348c0,258.042 209.18,467.172 467.254,467.172"/>
      <path fill="#8a4182" fill-rule="nonzero" id="path48" d="m1011.13,771.883l-175.771,57.121l11.629,35.808l175.762,-57.121l-11.62,-35.808"/>
      <path fill="#8a4182" fill-rule="nonzero" id="path50" d="m786.957,1054.074l-30.457,22.125l108.621,149.531l30.465,-22.12l-108.629,-149.536"/>
      <path fill="#8a4182" fill-rule="nonzero" id="path52" d="m527.465,1055.445l-108.61,149.525l30.465,22.13l108.61,-149.534l-30.465,-22.121"/>
      <path fill="#8a4182" fill-rule="nonzero" id="path54" d="m300.688,774.129l-11.626,35.801l175.758,57.09l11.621,-35.801l-175.753,-57.09"/>
      <path fill="#8a4182" fill-rule="nonzero" id="path56" d="m636.289,528.59l37.6406,0l0,184.816l-37.6406,0l0,-184.816z"/>
     </g>
    </g>
   </g>
  </g>
  <text font-style="normal" font-weight="bold" xml:space="preserve" text-anchor="start" font-family="'Courier New', Courier, monospace" font-size="24" id="svg_2" y="165.25" x="511.481262" stroke-width="0" fill="#8a4182">Cheatsheet</text>
 </g>
</svg>